<svg
   width="800"
   height="300">
   <component
       id="image-background"
       width="800"
       height="300"
       x="0"
       y="0" />
    <component
      id="button-bypass"
      width="39"
      height="39"
      x="10"
      y="10" />
    <component 
      id="comboBox-preset"
      width="459"
      height="39"
      x="170"
      y="10" />
    <component
      id="comboBox-gridRes"
      width="142"
      height="32"
      x="19"
      y="69" />
    <component
       id="slider-wetdry"
       width="86"
       height="86"
       x="697"
       y="82" />
    <component
       id="slider-gain"
       width="86"
       height="86"
       x="697"
       y="196" />
    <component
       id="component-canvas"
       width="639"
       height="170"
       x="21"
       y="110" />
    <component
       id="ruler-horizontal"
       width="639"
       height="20"
       x="21"
       y="280" />
    <component
       id="ruler-vertical"
       width="22"
       height="171"
       x="0"
       y="110" />
    <component
       id="button-splitChannels"
       width="24"
       height="24"
       x="558"
       y="73" />
    <component
       id="button-leftChannel"
       width="27"
       height="24"
       x="601"
       y="73" />
    <component
       id="button-rightChannel"
       width="27"
       height="24"
       x="630"
       y="73" />
    <component
       id="button-gridLeft"
       width="24"
       height="24"
       y="73"
       x="23" />
    <component 
      id="button-gridRight"
      width="24"
      height="24"
      y="73"
      x="133" />
    <component
      id="label-gridRes"
      width="142"
      height="24"
      y="73"
      x="19" />
</svg>
